<mxfile host="app.diagrams.net" modified="2020-11-04T01:49:35.532Z" agent="5.0 (Windows NT 6.1; Win64; x64) AppleWebKit/537.36 (KHTML, like Gecko) Chrome/86.0.4240.111 Safari/537.36" etag="XSiC0IP77JiU4GFk2bjM" version="13.8.1" type="github">
  <diagram id="ra5aHR82CHhgzafICrF0" name="第 1 页">
    <mxGraphModel dx="1102" dy="582" grid="1" gridSize="10" guides="1" tooltips="1" connect="1" arrows="1" fold="1" page="1" pageScale="1" pageWidth="827" pageHeight="1169" math="0" shadow="0">
      <root>
        <mxCell id="0" />
        <mxCell id="1" parent="0" />
        <mxCell id="wwp1n0GaFNwt0heOWrXo-1" value="实时任务" style="rounded=0;whiteSpace=wrap;html=1;fontSize=16;fillColor=#ffff88;strokeColor=#36393d;" vertex="1" parent="1">
          <mxGeometry x="160" y="200" width="240" height="40" as="geometry" />
        </mxCell>
        <mxCell id="wwp1n0GaFNwt0heOWrXo-3" value="普通任务" style="rounded=0;whiteSpace=wrap;html=1;fontSize=16;fillColor=#cce5ff;strokeColor=#36393d;" vertex="1" parent="1">
          <mxGeometry x="400" y="200" width="120" height="40" as="geometry" />
        </mxCell>
        <mxCell id="wwp1n0GaFNwt0heOWrXo-4" value="0" style="text;html=1;align=center;verticalAlign=middle;resizable=0;points=[];autosize=1;fontSize=16;" vertex="1" parent="1">
          <mxGeometry x="150" y="240" width="20" height="20" as="geometry" />
        </mxCell>
        <mxCell id="wwp1n0GaFNwt0heOWrXo-6" value="99" style="text;html=1;align=center;verticalAlign=middle;resizable=0;points=[];autosize=1;fontSize=16;" vertex="1" parent="1">
          <mxGeometry x="370" y="240" width="30" height="20" as="geometry" />
        </mxCell>
        <mxCell id="wwp1n0GaFNwt0heOWrXo-7" value="139" style="text;html=1;align=center;verticalAlign=middle;resizable=0;points=[];autosize=1;fontSize=16;" vertex="1" parent="1">
          <mxGeometry x="490" y="240" width="40" height="20" as="geometry" />
        </mxCell>
        <mxCell id="wwp1n0GaFNwt0heOWrXo-8" value="-20" style="text;html=1;align=center;verticalAlign=middle;resizable=0;points=[];autosize=1;fontSize=16;" vertex="1" parent="1">
          <mxGeometry x="379" y="180" width="40" height="20" as="geometry" />
        </mxCell>
        <mxCell id="wwp1n0GaFNwt0heOWrXo-9" value="19" style="text;html=1;align=center;verticalAlign=middle;resizable=0;points=[];autosize=1;fontSize=16;" vertex="1" parent="1">
          <mxGeometry x="500" y="180" width="30" height="20" as="geometry" />
        </mxCell>
        <mxCell id="wwp1n0GaFNwt0heOWrXo-10" value="Nice" style="text;html=1;align=center;verticalAlign=middle;resizable=0;points=[];autosize=1;fontSize=16;" vertex="1" parent="1">
          <mxGeometry x="435" y="180" width="50" height="20" as="geometry" />
        </mxCell>
        <mxCell id="wwp1n0GaFNwt0heOWrXo-11" value="100" style="text;html=1;align=center;verticalAlign=middle;resizable=0;points=[];autosize=1;fontSize=16;" vertex="1" parent="1">
          <mxGeometry x="394" y="240" width="40" height="20" as="geometry" />
        </mxCell>
        <mxCell id="wwp1n0GaFNwt0heOWrXo-12" value="" style="endArrow=classic;html=1;fontSize=16;" edge="1" parent="1">
          <mxGeometry width="50" height="50" relative="1" as="geometry">
            <mxPoint x="370" y="170" as="sourcePoint" />
            <mxPoint x="250" y="170" as="targetPoint" />
          </mxGeometry>
        </mxCell>
        <mxCell id="wwp1n0GaFNwt0heOWrXo-13" value="高优先级" style="text;html=1;align=center;verticalAlign=middle;resizable=0;points=[];autosize=1;fontSize=16;" vertex="1" parent="1">
          <mxGeometry x="280" y="150" width="80" height="20" as="geometry" />
        </mxCell>
      </root>
    </mxGraphModel>
  </diagram>
</mxfile>
